<svg id="154a814a-6dd8-46a7-85a8-d442176dfa3d" data-name="Layer 1" xmlns="http://www.w3.org/2000/svg" viewBox="0 0 259.8 44.6"><title>brand-content-logo</title><rect x="10.4" y="8.3" width="23.3" height="26" style="fill:#fff"/><path d="M22.3,0A22.3,22.3,0,1,0,44.6,22.3,22.32,22.32,0,0,0,22.3,0ZM32.6,26.2a7,7,0,0,1-.5,2.5,6.43,6.43,0,0,1-3.5,3.5,7,7,0,0,1-2.5.5H13V14.1a4.06,4.06,0,0,1,4.3-3.9H26a7,7,0,0,1,2.5.5A6.43,6.43,0,0,1,32,14.2a7,7,0,0,1,.5,2.5,6.51,6.51,0,0,1-2,4.7A6.29,6.29,0,0,1,32.6,26.2Z" style="fill:#a13232"/><path d="M18.9,15.1a1.79,1.79,0,0,0-1.8,1.8v11H26a1.8,1.8,0,0,0,0-3.6H20.8V18.7H26a1.8,1.8,0,0,0,0-3.6Z" style="fill:#a13232"/><path d="M63.1,28.7V16.5h5c2.2,0,3.4,1.2,3.4,3a2.78,2.78,0,0,1-1.6,2.6A2.86,2.86,0,0,1,72.4,25c0,2.6-2,3.6-4.1,3.6S63.1,28.7,63.1,28.7Zm3.1-9.8v2.3h.9c.7,0,1.3-.3,1.3-1.2s-.7-1.1-1.4-1.1Zm0,4.7v2.7h1.5c.8,0,1.6-.3,1.6-1.4s-.8-1.3-1.6-1.3Z" style="fill:#fff"/><path d="M82.9,24.4h-.6v4.3H79.1V16.5h4.8c2.2,0,4.2,1.2,4.2,3.8A3.13,3.13,0,0,1,86,23.6c.3.5,3.3,5,3.3,5H85.5C85.5,28.7,83.3,25,82.9,24.4ZM82.2,19v3h1c.9,0,1.6-.4,1.6-1.5A1.4,1.4,0,0,0,83.2,19Z" style="fill:#fff"/><path d="M97.8,28.7H94.4l4.5-12.1h3.6L107,28.7h-3.4l-.8-2.3H98.6Zm2.9-8.4L99.4,24H102Z" style="fill:#fff"/><path d="M116.7,21.4v7.2h-3.2V16.5h3.2l5.7,7.2V16.5h3.1V28.6h-3.2Z" style="fill:#fff"/><path d="M132.9,28.7V16.5H138a5.65,5.65,0,0,1,5.8,5.9c0,3.6-2.4,6.2-5.7,6.2C136.1,28.7,132.9,28.7,132.9,28.7Zm3.3-9.5V26h1.4c1.9,0,3-1.5,3-3.5a2.92,2.92,0,0,0-2.9-3.2h-1.5Z" style="fill:#fff"/><path d="M149.9,22.7a6.12,6.12,0,0,1,6.2-6.5,5.87,5.87,0,0,1,3.2.8v3.3a4.15,4.15,0,0,0-3-1.1c-2.1,0-3.2,1.5-3.2,3.6a3.1,3.1,0,0,0,3.4,3.2,5.6,5.6,0,0,0,2.9-1v3.2a7.46,7.46,0,0,1-3.1.8A6.17,6.17,0,0,1,149.9,22.7Z" style="fill:#fff"/><path d="M165.8,22.6a6.71,6.71,0,0,1,13.4-.1,6.49,6.49,0,0,1-6.7,6.6A6.36,6.36,0,0,1,165.8,22.6Zm6.6-3.5a3.44,3.44,0,0,0-3.5,3.6,3.31,3.31,0,0,0,3.5,3.5,3.39,3.39,0,0,0,3.5-3.6A3.31,3.31,0,0,0,172.4,19.1Z" style="fill:#fff"/><path d="M189.1,21.4v7.2H186V16.5h3.2l5.7,7.2V16.5H198V28.6h-3.2Z" style="fill:#fff"/><path d="M206.7,28.7V19.4h-2.5V16.5h8.3v2.9H210v9.3Z" style="fill:#fff"/><path d="M218.8,28.7V16.5h7v2.8H222v2h3.6V24H222v2h3.9v2.7Z" style="fill:#fff"/><path d="M236.4,21.4v7.2h-3.2V16.5h3.2l5.7,7.2V16.5h3.1V28.6H242Z" style="fill:#fff"/><path d="M254,28.7V19.4h-2.5V16.5h8.3v2.9h-2.5v9.3Z" style="fill:#fff"/></svg>