<?xml version="1.0" encoding="UTF-8"?>
<svg width="25px" height="24px" viewBox="0 0 25 24" version="1.1" xmlns="http://www.w3.org/2000/svg" xmlns:xlink="http://www.w3.org/1999/xlink">
    <!-- Generator: Sketch 50.2 (55047) - http://www.bohemiancoding.com/sketch -->
    <title>Github</title>
    <desc>Created with Sketch.</desc>
    <defs></defs>
    <g id="Page-1" stroke="none" stroke-width="1" fill="none" fill-rule="evenodd">
        <g id="Main" transform="translate(-555.000000, -1569.000000)" fill="#0B0B0A" fill-rule="nonzero">
            <g id="Footer" transform="translate(555.000000, 1568.000000)">
                <g id="Github" transform="translate(0.000000, 1.000000)">
                    <path d="M12.4992188,0 C5.596875,0 0,5.5083023 0,12.3046693 C0,17.7399171 3.58125,22.3515728 8.54921875,23.9787636 C9.17421875,24.0918056 9.40234375,23.7119229 9.40234375,23.3858696 C9.40234375,23.0936518 9.39140625,22.3200439 9.38515625,21.2934373 C5.9078125,22.0370543 5.17421875,19.6439459 5.17421875,19.6439459 C4.60625,18.2228451 3.78671875,17.8445004 3.78671875,17.8445004 C2.6515625,17.0808894 3.87265625,17.0962693 3.87265625,17.0962693 C5.1265625,17.1831656 5.78671875,18.3643399 5.78671875,18.3643399 C6.90234375,20.2445301 8.7125,19.7016204 9.425,19.386333 C9.53828125,18.5911936 9.86171875,18.049053 10.21875,17.7414552 C7.44296875,17.4307818 4.525,16.3757224 4.525,11.6610215 C4.525,10.3175893 5.01171875,9.21946622 5.81171875,8.35896205 C5.6828125,8.04751967 5.25390625,6.79713601 5.93359375,5.10304239 C5.93359375,5.10304239 6.98359375,4.77237549 9.37109375,6.36419235 C10.36875,6.0911995 11.4375,5.95508784 12.5007812,5.94970469 C13.5625,5.95508784 14.6320312,6.0911995 15.6304687,6.36419235 C18.0164062,4.77237549 19.0640625,5.10304239 19.0640625,5.10304239 C19.7460938,6.79713601 19.3171875,8.04751967 19.1882812,8.35896205 C19.9898437,9.21946622 20.4734375,10.3175893 20.4734375,11.6610215 C20.4734375,16.3872572 17.5507812,17.4277057 14.7664062,17.7322274 C15.2148437,18.1121101 15.6148438,18.8626484 15.6148438,20.0107558 C15.6148438,21.6556336 15.5992188,22.9821478 15.5992188,23.3858696 C15.5992188,23.714999 15.8242188,24.0979578 16.4585938,23.9772256 C21.421875,22.3469587 25,17.7383791 25,12.3046693 C25,5.5083023 19.403125,0 12.4992188,0"></path>
                </g>
            </g>
        </g>
    </g>
</svg>