<svg width="340" height="103" viewBox="0 0 340 103" xmlns="http://www.w3.org/2000/svg" xmlns:xlink="http://www.w3.org/1999/xlink"><title>Coldwell_Banker_logo</title><defs><path id="a" d="M0.154751591 51.7371426L47.7007235 51.7371426 47.7007235 0.512967757 0.154751591 0.512967757z"/><path id="c" d="M0.0348609524 0.523489299L0.0348609524 93.1393805 280.069407 93.1393805 280.069407 0.523489299z"/><path id="e" d="M0.0348609524 0.523489299L0.0348609524 93.1393805 280.069407 93.1393805 280.069407 0.523489299z"/></defs><g fill="none" fill-rule="evenodd"><g transform="translate(144.27 50.54)"><mask id="b" fill="#fff"><use xlink:href="#a"/></mask><path fill="#F2F2F2" fill-rule="nonzero" mask="url(#b)" d="M0.154751591 0.512967757L0.154751591 43.1309478 14.9981054 43.1309478 14.9981054 33.3054136 19.1729077 27.9781661 31.6973146 51.772848 47.7007235 51.772848 32.0457966 20.7567464 26.0151387 20.7567464 42.5979936 0.512967757 26.9424847 0.512967757 14.9981054 14.0090186 14.9981054 0.512967757 0.154751591 0.512967757"/></g><path d="M320.489 29.12V0h-14.834v29.12h-19.493V0h-14.834v29.12h-27.843c-4.638 0-7.77-3.993-7.77-9.041 0-5.05 2.667-9.511 7.885-9.511h8.467c3.479 0 3.479 4.11.115 4.11H238.73c-.348 7.044 3.827 9.98 8.35 9.98h8.234c12.525 0 12.988-9.394 12.988-13.15C268.302 7.75 263.664 0 255.778 0h-13.453c-10.321 0-19.947 9.159-19.947 20.548 0 10.45 7.19 21.722 19.947 21.722h14.148c7.945 0 12.752-5.86 14.904-9.834.492 5.513 5.064 9.834 10.638 9.834h12.96c5.878 0 10.645-4.805 10.684-10.747.04 5.942 4.805 10.747 10.683 10.747h12.96c5.902 0 10.688-4.844 10.688-10.82l.01-2.33h-19.511M191.135 36.4c2.528 4.461 5.325 5.87 10.025 5.87h6.954c5.848 0 10.589-4.844 10.589-10.82V0h-5.218c-6.894 0-9.48 6.693-9.48 11.272V25.95c0 4.286-5.458 4.227-5.458-.117V0h-14.709v26.301c0 3.875-5.572 3.758-5.572 0V0h-14.698v31.45c0 5.976 4.74 10.82 10.588 10.82h6.839c4.713 0 7.843-1.644 10.14-5.87M321.65 85.841h-8.814V79.97h7.88V70.4h-7.88v-5.93h9.513c3.97 0 6.305 2.114 6.188 5.05-.117 2.935-1.284 4.461-2.92 5.518 1.519.705 3.504 2.114 3.504 5.636 0 3.523-3.97 5.167-7.471 5.167zM301.634 67.47c0-4.697 3.853-10.567 9.806-10.567h7.588v5.87h-7.88v9.218h7.88v6.282h-7.238c-6.653 0-10.156-6.106-10.156-10.803zm29.222-16.012h-31.334c-3.527 0-6.387 2.877-6.387 6.424v29.423c0 3.547 2.86 6.424 6.387 6.424h31.334c3.528 0 6.387-2.877 6.387-6.424V57.883c0-3.547-2.859-6.424-6.387-6.424zM139.651 29.116h-4.877V11.972h4.877c4.993 0 7.896 3.054 7.896 9.042 0 5.988-3.367 8.102-7.896 8.102zM143.392 0H119.82v29.12h-19.508V0H85.46v31.45c0 5.976 4.79 10.82 10.701 10.82h12.977c5.793 0 10.5-4.658 10.683-10.47v10.47h23.805c6.387 0 17.186-8.336 17.186-21.604C160.81 7.397 148.618 0 143.392 0z" fill="#F3F3F3" fill-rule="nonzero"/><mask id="d" fill="#fff"><use xlink:href="#c"/></mask><path d="M263.29 65.613h-13.319v-4.09h13.087c2.896 0 2.896 4.09.232 4.09zm5.893 8.475c8.918-1.52 9.96-7.714 9.96-11.688 0-4.207-3.938-11.337-11.465-11.337h-32.66V80.05h-30.46c-4.633 0-7.76-3.974-7.76-9 0-5.025 2.664-9.467 7.876-9.467h8.802c3.01 0 3.01 4.09.232 4.09H199.81c-.348 7.014 3.822 9.935 8.338 9.935h9.497c12.508 0 13.666-9.35 13.666-13.09s-4.4-11.454-12.276-11.454H203.4c-10.308 0-19.92 9.117-19.92 20.454 0 10.402 7.18 21.622 19.92 21.622h16.793c7.862 0 12.648-5.729 14.824-9.682v9.682h14.825V70.7l13.782 22.44h16.445l-10.886-19.05z" fill="#F2F2F2" fill-rule="nonzero" mask="url(#d)"/><mask id="f" fill="#fff"><use xlink:href="#e"/></mask><path d="M61.252 29.821c-4.432 0-8.024-3.625-8.024-8.096 0-4.472 3.592-8.097 8.024-8.097 4.43 0 8.022 3.625 8.022 8.097 0 4.47-3.591 8.096-8.022 8.096zM61.15.523c-11.603 0-21.01 9.492-21.01 21.202 0 2.81.548 5.492 1.532 7.947H21.078c-2.895 0-7.296-2.805-7.296-7.947 0-5.143 3.59-9.818 7.528-9.818h16.446V.687H19.805C12.855.686 0 6.763 0 22.424c0 15.662 15.519 20.338 19.805 20.338h9.612c2.947 0 11.24-3.959 13.622-10.297 3.653 6.258 10.394 10.46 18.112 10.46 11.603 0 21.008-9.493 21.008-21.201 0-11.71-9.405-21.202-21.008-21.202z" fill="#F2F2F2" fill-rule="nonzero" mask="url(#f)"/><path d="M66.085 81.76l4.931-11.265 4.162 11.265h-9.093zm58.796-30.3v21.826l-16.183-21.827H95.29v40.313L78.414 51.459h-6.588c-6.357 0-8.67 5.28-9.825 8.332L47.784 93.704H60.96l4.337-9.908c2.748 10.843 13.348 9.908 13.348 9.908h32.133V75.633l10.171 14.199c3.7 4.46 7.052 3.872 9.826 3.872h8.9V51.46H124.88zM30.407 66.666h-9.61v-4.345h9.494c3.242 0 3.242 4.345.116 4.345zm0 14.305h-9.61v-4.814h9.494c3.242 0 3.242 4.814.116 4.814zm12.04-8.848c2.316-1.526 3.358-3.992 3.242-8.806-.116-4.814-3.242-11.859-12.504-11.859H5.514v42.27h30.45c11.809.117 16.209-14.207 6.483-21.605z" fill="#F3F3F3" fill-rule="nonzero"/></g></svg>