<?xml version="1.0" encoding="UTF-8"?>
<svg width="26px" height="24px" viewBox="0 0 26 24" version="1.1" xmlns="http://www.w3.org/2000/svg" xmlns:xlink="http://www.w3.org/1999/xlink">
    <!-- Generator: Sketch 50.2 (55047) - http://www.bohemiancoding.com/sketch -->
    <title>LinkedIn</title>
    <desc>Created with Sketch.</desc>
    <defs></defs>
    <g id="Page-1" stroke="none" stroke-width="1" fill="none" fill-rule="evenodd">
        <g id="Main" transform="translate(-859.000000, -1568.000000)" fill="#0B0B0A" fill-rule="nonzero">
            <g id="Footer" transform="translate(555.000000, 1568.000000)">
                <g id="LinkedIn" transform="translate(304.000000, 0.000000)">
                    <path d="M26,24 L20.2536455,24 L20.2536455,15.56304 C20.2536455,13.3546776 19.354774,11.84709 17.3781749,11.84709 C15.8662985,11.84709 15.0255176,12.8644428 14.6341721,13.8449124 C14.4874175,14.196837 14.5103483,14.6870718 14.5103483,15.1773066 L14.5103483,24 L8.81749759,24 C8.81749759,24 8.89087491,9.0547482 8.81749759,7.6962282 L14.5103483,7.6962282 L14.5103483,10.2549786 C14.8466606,9.1361976 16.6658044,7.5394764 19.5687913,7.5394764 C23.1703905,7.5394764 26,9.884613 26,14.9344944 L26,24 Z M3.06044227,5.6569122 L3.02375332,5.6569122 C1.18932273,5.6569122 0,4.4105784 0,2.8307616 C0,1.2202086 1.22448241,0 3.09560195,0 C4.96519282,0 6.11476923,1.2171354 6.15145818,2.8261512 C6.15145818,4.405968 4.96519282,5.6569122 3.06044227,5.6569122 Z M0.655809227,7.6962282 L5.72342432,7.6962282 L5.72342432,24 L0.655809227,24 L0.655809227,7.6962282 Z"></path>
                </g>
            </g>
        </g>
    </g>
</svg>