<svg width="378" height="102" viewBox="0 0 378 102" xmlns="http://www.w3.org/2000/svg"><title>rocktech-light</title><g fill="none" fill-rule="evenodd"><path d="M9.736 98.223v.883a.331.331 0 0 1-.165.166.311.311 0 0 1-.164.083H2.019a1.143 1.143 0 0 1-.659-.216 1.04 1.04 0 0 1-.246-.75V85.404a.872.872 0 0 1 .246-.716.932.932 0 0 1 .659-.25h7.19a.325.325 0 0 1 .165 0c.064.057.11.133.131.216.051.104.08.218.083.333.023.194.023.39 0 .583.024.182.024.367 0 .55a.84.84 0 0 1-.083.383.85.85 0 0 1-.131.216.244.244 0 0 1-.165 0H3.927v3.63h4.46c.082 0 .131 0 .213.083a.598.598 0 0 1 .132.166 1.01 1.01 0 0 1 0 .383c.055.359.055.724 0 1.083.03.126.03.257 0 .383a.615.615 0 0 1-.132.166H3.927v4.446H9.26c.061.01.119.04.164.083a.3.3 0 0 1 .165.216c.005.111.005.222 0 .333v.583l.148-.05zm13.542 0c.105.201.188.413.247.633v.383c-.153.086-.32.143-.494.166h-1.859c-.168 0-.335-.027-.494-.083a1.344 1.344 0 0 1-.247-.133 1.27 1.27 0 0 1-.131-.25l-2.864-5.311-2.764 5.344c-.036.088-.08.171-.132.25l-.296.133c-.145.062-.303.09-.46.084h-1.778a.768.768 0 0 1-.41-.167c-.083-.083-.083-.216 0-.383.062-.226.162-.44.295-.633l3.505-6.526-3.29-6.094a2.78 2.78 0 0 1-.297-.666v-.383a.98.98 0 0 1 .494-.167h1.859c.197 0 .362 0 .494.084.089.02.173.06.246.116l.132.25 2.6 4.995 2.517-4.995.132-.25a.655.655 0 0 1 .247-.116c.115 0 .247 0 .46-.084h1.646a.8.8 0 0 1 .46.167.387.387 0 0 1 0 .383 4.78 4.78 0 0 1-.246.666l-3.29 6.06 3.718 6.527zm12.801-9.24c.01.755-.119 1.505-.378 2.214a4.415 4.415 0 0 1-1.119 1.665 5.886 5.886 0 0 1-1.826.999c-.837.23-1.7.342-2.567.333h-1.234v4.762a.32.32 0 0 1 0 .216.641.641 0 0 1-.247.167c-.156.011-.31.039-.461.083h-1.448a3.158 3.158 0 0 0-.494-.083.906.906 0 0 1-.214-.167.337.337 0 0 1 0-.216V85.569a.972.972 0 0 1 .297-.799.867.867 0 0 1 .74-.3h4.459c.296 0 .708 0 1.12.167.473.11.931.278 1.365.5.434.234.824.544 1.152.915.307.37.547.793.707 1.249.171.538.255 1.1.247 1.665l-.099.016zm-3.142.216a2.893 2.893 0 0 0-.247-1.299 2.405 2.405 0 0 0-.658-.75 2.4 2.4 0 0 0-.873-.299 6.277 6.277 0 0 0-.905 0h-1.3v4.995h1.317c.407.02.814-.036 1.201-.166a2.503 2.503 0 0 0 1.284-1.416c.089-.342.133-.694.131-1.048l.05-.017zm13.953 8.908c.022.193.022.389 0 .582.02.127.02.256 0 .383-.036.072-.08.139-.132.2-.082 0-.131.083-.214.083h-6.779a1.029 1.029 0 0 1-.625-.216 1.04 1.04 0 0 1-.247-.75V84.904a.235.235 0 0 1 .082-.216.887.887 0 0 1 .214-.133l.494-.134h1.448l.46.134c.091.026.175.072.247.133V96.89h4.624s.132 0 .214.083a.484.484 0 0 1 .132.217.859.859 0 0 1 0 .383c.025.193.025.39 0 .583l.082-.05zm14.99-6.36a11.633 11.633 0 0 1-.46 3.33 7.467 7.467 0 0 1-1.366 2.464 5.987 5.987 0 0 1-2.238 1.548 7.702 7.702 0 0 1-3.06.55 8.334 8.334 0 0 1-3.012-.467 5.045 5.045 0 0 1-2.14-1.382 6.5 6.5 0 0 1-1.283-2.38 13.47 13.47 0 0 1-.41-3.33c-.014-1.128.141-2.25.46-3.33a6.214 6.214 0 0 1 1.366-2.465 5.79 5.79 0 0 1 2.22-1.548 7.685 7.685 0 0 1 3.061-.55 9.262 9.262 0 0 1 2.979.466 5.307 5.307 0 0 1 2.155 1.382 5.78 5.78 0 0 1 1.284 2.348c.312 1.082.467 2.203.46 3.33l-.016.033zm-3.143.133c0-.716-.066-1.43-.197-2.132a4.763 4.763 0 0 0-.626-1.665 2.926 2.926 0 0 0-1.151-1.082 3.91 3.91 0 0 0-1.81-.383 3.619 3.619 0 0 0-1.86.466 3.304 3.304 0 0 0-1.2 1.083c-.3.515-.512 1.078-.626 1.665a10.239 10.239 0 0 0-.214 1.964c.002.744.073 1.485.214 2.215.073.59.269 1.158.576 1.665.296.455.712.818 1.2 1.049a3.796 3.796 0 0 0 1.81.383c.644.009 1.28-.134 1.86-.417a3.902 3.902 0 0 0 1.201-1.132c.3-.515.511-1.078.626-1.665.137-.674.209-1.36.214-2.048l-.017.034zm16.981 7.11c0 .082 0 .116-.082.216-.082.1 0 0-.198.133a1.481 1.481 0 0 1-.493.083H73.3a1.254 1.254 0 0 1-.461-.083.378.378 0 0 1-.247-.167.318.318 0 0 1-.082-.216l-1.317-3.33c-.164-.378-.329-.71-.493-1a2.383 2.383 0 0 0-.494-.748 1.79 1.79 0 0 0-.658-.417 1.629 1.629 0 0 0-.823-.166h-.905v5.677a.32.32 0 0 1 0 .217c-.082 0-.132.116-.247.166-.156.012-.31.04-.46.084H65.663a3.109 3.109 0 0 0-.493-.084.908.908 0 0 1-.198-.166.318.318 0 0 1-.082-.217v-13.57a.872.872 0 0 1 .247-.715.866.866 0 0 1 .658-.25h5.463c.568.073 1.123.23 1.645.466.45.18.86.453 1.202.8.348.34.618.756.79 1.215.175.496.258 1.021.246 1.548.013.467-.043.932-.164 1.382-.124.394-.32.761-.576 1.082-.239.341-.547.625-.905.833-.36.269-.768.466-1.201.583l.625.383c.211.162.395.36.543.582a6.1 6.1 0 0 1 .494.75c.17.296.324.602.46.915l1.234 2.964c0 .3.165.5.214.633.042.107.07.219.083.333l-.23.083zm-3.883-10.107a2.352 2.352 0 0 0-.33-1.25 1.644 1.644 0 0 0-1.069-.715 2.002 2.002 0 0 0-.543-.083 3.935 3.935 0 0 0-.79 0h-1.316v4.212h1.481c.38.02.76-.037 1.119-.166.3-.08.58-.221.823-.417.205-.18.364-.409.46-.666.115-.28.171-.58.165-.882v-.033zM90.33 98.24c.08.215.135.438.164.666.067.1.067.232 0 .333a.8.8 0 0 1-.46.166h-2.271a.937.937 0 0 1-.247-.166s0-.117-.082-.25l-.988-2.964h-5.528l-.955 2.864c0 .133 0 .217-.131.3a.429.429 0 0 1-.214.166 1.498 1.498 0 0 1-.494.084h-1.612a.768.768 0 0 1-.412-.167v-.383c.05-.228.122-.451.214-.666l4.542-13.203c.037-.114.08-.225.131-.333a1.64 1.64 0 0 1 .296-.167c.188-.054.382-.082.576-.083h1.975c.211-.006.423.022.625.083a.64.64 0 0 1 .33.2.652.652 0 0 1 .164.333L90.33 98.24zM83.6 87.284l-2.09 6.444h4.18l-2.09-6.444zm17.178-1.665v.966a.918.918 0 0 1-.131.216c-.083 0-.132.084-.198.084h-3.67v11.988c.002.08-.028.157-.081.216a.641.641 0 0 1-.247.166c-.156.012-.31.04-.46.084H94.541l-.46-.084a.658.658 0 0 1-.247-.166V87.068h-3.67a.31.31 0 0 1-.214-.084.35.35 0 0 1-.131-.216 3.944 3.944 0 0 1-.132-.383V85.22c.03-.132.075-.26.132-.383a.267.267 0 0 1 .131-.217.325.325 0 0 1 .214 0h10.58a.467.467 0 0 1 .132.217c.009.127.009.255 0 .383v.582l-.099-.183zm5.118 13.32a.32.32 0 0 1 0 .217.641.641 0 0 1-.247.166c-.156.015-.31.043-.46.083h-1.448a2.768 2.768 0 0 0-.462-.083.641.641 0 0 1-.246-.166.337.337 0 0 1 0-.217V84.903v-.216a.672.672 0 0 1 .246-.133l.461-.134h1.448l.46.134c.091.026.175.071.248.133V98.939zm16.849-7.143a11.582 11.582 0 0 1-.46 3.33 6.214 6.214 0 0 1-1.366 2.464 5.379 5.379 0 0 1-2.238 1.549 7.685 7.685 0 0 1-3.06.55 8.318 8.318 0 0 1-3.012-.467 4.931 4.931 0 0 1-2.106-1.382 5.497 5.497 0 0 1-1.284-2.38 11.784 11.784 0 0 1-.46-3.33c-.013-1.128.142-2.25.46-3.33a7.45 7.45 0 0 1 1.366-2.465 6.58 6.58 0 0 1 2.238-1.548 7.685 7.685 0 0 1 3.06-.55 9.083 9.083 0 0 1 2.979.466 5.06 5.06 0 0 1 2.155 1.382 5.78 5.78 0 0 1 1.284 2.348c.312 1.082.467 2.203.46 3.33l-.016.033zm-3.143.133a11.52 11.52 0 0 0-.214-2.13 4.763 4.763 0 0 0-.625-1.666 2.91 2.91 0 0 0-1.152-1.082 3.91 3.91 0 0 0-1.81-.383 3.619 3.619 0 0 0-1.86.466 3.304 3.304 0 0 0-1.2 1.083c-.3.515-.511 1.078-.626 1.665-.13.646-.195 1.304-.197 1.964.001.744.073 1.485.214 2.215.108.588.32 1.152.625 1.665.28.452.679.815 1.152 1.049a3.796 3.796 0 0 0 1.81.383 4.09 4.09 0 0 0 1.86-.417 3.885 3.885 0 0 0 1.2-1.132c.3-.515.511-1.078.626-1.665.137-.674.209-1.36.214-2.048l-.017.033zm18.1 6.444c-.003.159-.03.316-.082.466a.632.632 0 0 1-.247.333.788.788 0 0 1-.378.217 1.4 1.4 0 0 1-.412.083H135.3a3.466 3.466 0 0 1-.708-.083 3.28 3.28 0 0 1-.543-.3 3.573 3.573 0 0 1-.46-.583 6.857 6.857 0 0 1-.494-.965l-3.67-6.944c-.197-.416-.46-.882-.658-1.381-.197-.5-.411-.916-.576-1.382V98.989c.021.07.021.146 0 .217l-.197.116-.411.133h-1.366l-.411-.133c-.083 0-.165 0-.165-.116a.438.438 0 0 1 0-.217V85.57a1.072 1.072 0 0 1 .308-.77c.202-.204.477-.317.762-.312h1.645c.246-.024.494-.024.74 0 .198.04.384.125.543.25.157.149.295.316.412.5.18.21.319.453.411.715l2.896 5.478c.165.333.33.666.494.966.17.313.323.636.46.965.171.314.325.636.461.966.161.294.299.6.412.916V84.92a.236.236 0 0 1 0-.217c.063-.065.135-.12.213-.166a1.22 1.22 0 0 1 .412 0c.235-.026.472-.026.707 0 .208-.025.418-.025.626 0 .135-.027.275-.027.411 0 .079.044.151.1.214.166.02.071.02.146 0 .217l-.066 13.453zm17.919-9.324a6.208 6.208 0 0 1-.411 2.214 4.415 4.415 0 0 1-1.12 1.665 5.854 5.854 0 0 1-1.81 1c-.819.23-1.666.341-2.517.332h-1.234v4.762c0 .08-.029.158-.082.217a.641.641 0 0 1-.247.166 2.8 2.8 0 0 0-.46.084H146.29l-.46-.084a.625.625 0 0 1-.247-.166.337.337 0 0 1 0-.217V85.57a1.14 1.14 0 0 1 .28-.799c.194-.2.462-.31.74-.3h4.459c.33 0 .708 0 1.119.167.473.11.932.278 1.366.5a4.22 4.22 0 0 1 1.152.915c.323.36.564.785.707 1.249.183.536.277 1.098.28 1.665l-.066.083zm-3.143.216a2.404 2.404 0 0 0-.296-1.298 1.957 1.957 0 0 0-.658-.75 2.221 2.221 0 0 0-.823-.3 7.578 7.578 0 0 0-.905 0h-1.283v4.996h1.316c.407.02.814-.036 1.201-.167.311-.134.591-.333.823-.582.21-.241.368-.525.46-.833.103-.34.158-.693.165-1.049v-.017zm16.767 9.774v.216a.688.688 0 0 1-.246.134 1.319 1.319 0 0 1-.494.083h-1.645a1.221 1.221 0 0 1-.461-.083.526.526 0 0 1-.247-.167.337.337 0 0 1 0-.216l-1.316-3.33a11.243 11.243 0 0 0-.494-1 2.35 2.35 0 0 0-.494-.749 2.006 2.006 0 0 0-.625-.416 1.89 1.89 0 0 0-.872-.166h-.905v5.677a.32.32 0 0 1 0 .217.658.658 0 0 1-.247.166c-.156.011-.31.04-.46.084H159.29a3.125 3.125 0 0 0-.493-.084.923.923 0 0 1-.214-.166.337.337 0 0 1 0-.217v-13.62a.872.872 0 0 1 .247-.715.883.883 0 0 1 .658-.25h5.463a5.74 5.74 0 0 1 1.645.466c.45.18.86.453 1.201.8.349.34.619.756.79 1.215.176.496.26 1.021.247 1.548.013.467-.043.932-.165 1.382-.124.394-.319.761-.575 1.082-.239.341-.548.625-.905.833-.361.27-.769.467-1.202.583l.626.383c.21.163.394.36.543.582.183.237.348.488.493.75.17.296.324.602.461.915l1.234 2.964c.084.207.155.418.214.633.042.107.07.219.082.333l-.395.133zm-3.718-10.123a2.033 2.033 0 0 0-.33-1.249 1.644 1.644 0 0 0-1.069-.716 2.018 2.018 0 0 0-.543-.083 3.92 3.92 0 0 0-.79 0h-1.316v4.212h1.48c.38.02.761-.036 1.12-.166.3-.08.58-.221.822-.416.203-.183.36-.411.461-.666.115-.28.17-.58.165-.883v-.033zm19.449 2.88a10.269 10.269 0 0 1-.46 3.33 6.685 6.685 0 0 1-1.317 2.464 5.987 5.987 0 0 1-2.238 1.549 7.897 7.897 0 0 1-3.094.55 8.237 8.237 0 0 1-2.978-.467 5.044 5.044 0 0 1-2.155-1.382 5.965 5.965 0 0 1-1.284-2.38 11.786 11.786 0 0 1-.411-3.33 10.1 10.1 0 0 1 .46-3.33 6.214 6.214 0 0 1 1.366-2.465 5.807 5.807 0 0 1 2.238-1.548 7.67 7.67 0 0 1 3.06-.55 9.278 9.278 0 0 1 2.979.466c.808.27 1.533.746 2.106 1.382a5.846 5.846 0 0 1 1.316 2.348c.296 1.084.434 2.206.412 3.33v.033zm-3.143.133a11.79 11.79 0 0 0-.165-2.13 4.796 4.796 0 0 0-.625-1.666 3.306 3.306 0 0 0-1.152-1.082 4.024 4.024 0 0 0-1.81-.383 3.603 3.603 0 0 0-1.859.466c-.49.244-.905.618-1.201 1.083a5.415 5.415 0 0 0-.658 1.665 10.24 10.24 0 0 0-.165 1.964c-.013.742.042 1.483.165 2.215.108.588.32 1.152.625 1.665.29.443.686.804 1.152 1.049a4.089 4.089 0 0 0 1.86.383 4.041 4.041 0 0 0 1.81-.417 3.472 3.472 0 0 0 1.2-1.132c.326-.505.55-1.071.658-1.665.12-.676.175-1.361.165-2.048v.033zm18.297-.216a9.795 9.795 0 0 1-.543 3.513 5.368 5.368 0 0 1-1.53 2.381 5.923 5.923 0 0 1-2.402 1.382 13.18 13.18 0 0 1-3.39.416h-3.505c-.226 0-.446-.076-.625-.216a1.023 1.023 0 0 1-.247-.75V85.404a.872.872 0 0 1 .247-.716.834.834 0 0 1 .625-.25h3.801a10.043 10.043 0 0 1 3.291.5 5.925 5.925 0 0 1 2.32 1.381 5.638 5.638 0 0 1 1.399 2.265c.348.993.516 2.043.494 3.097l.065.033zm-3.093.133a7.273 7.273 0 0 0-.247-1.964 4.083 4.083 0 0 0-.79-1.665 3.558 3.558 0 0 0-1.398-1.05 5.292 5.292 0 0 0-2.189-.382h-1.53v10.273h1.645c.7.01 1.396-.102 2.057-.333a3.668 3.668 0 0 0 1.399-.966c.39-.488.671-1.056.823-1.665.21-.735.31-1.499.296-2.264l-.066.016zm17.853 1.998a6.546 6.546 0 0 1-.411 2.464 5.003 5.003 0 0 1-1.152 1.832c-.548.513-1.2.9-1.909 1.132a8.61 8.61 0 0 1-2.65.383 7.698 7.698 0 0 1-2.467-.333 4.562 4.562 0 0 1-1.86-1.082 4.447 4.447 0 0 1-1.2-1.748 7.642 7.642 0 0 1-.363-2.515v-9.074a.387.387 0 0 1 0-.216.672.672 0 0 1 .247-.133l.46-.134h1.449c.158.028.312.073.46.134.091.026.175.071.247.133 0 .083.083.116.083.216v8.825c.001.523.073 1.044.214 1.548.139.387.351.744.625 1.05.285.282.62.507.987.665.397.14.814.213 1.234.217.437 0 .87-.073 1.284-.217.357-.158.68-.384.954-.666.273-.297.47-.657.576-1.049.161-.442.234-.911.214-1.382v-8.99-.217a.656.656 0 0 1 .247-.133 2.25 2.25 0 0 1 .46-.134h1.448l.412.134c.09.026.174.071.246.133 0 .083.083.116.083.216l.082 8.941zm13.12 3.32V97.997l-.133.25s0 .132-.165.215a1.972 1.972 0 0 1-.497.383c-.283.15-.576.277-.878.382a7.15 7.15 0 0 1-1.21.332 7.476 7.476 0 0 1-1.407.133 7.346 7.346 0 0 1-2.782-.498 5.348 5.348 0 0 1-2.07-1.38 6.655 6.655 0 0 1-1.292-2.343 10.006 10.006 0 0 1-.464-3.325c-.018-1.128.15-2.25.497-3.324.28-.93.761-1.786 1.408-2.51a5.614 5.614 0 0 1 2.153-1.496 7.347 7.347 0 0 1 2.782-.548c.406-.003.811.036 1.21.116.354.075.702.175 1.042.3.313.075.61.205.878.382.208.085.395.216.547.382.095.059.17.146.215.25l.133.249v1.512c0 .166 0 .3-.083.416a.399.399 0 0 1-.166.216.215.215 0 0 1-.166.083.777.777 0 0 1-.414-.2c-.198-.133-.414-.299-.695-.465a5.655 5.655 0 0 0-.994-.465 4.358 4.358 0 0 0-1.374-.2 3.303 3.303 0 0 0-1.657.382c-.46.256-.857.615-1.159 1.048a4.995 4.995 0 0 0-.745 1.662 8.339 8.339 0 0 0-.249 2.127c-.013.772.07 1.543.249 2.294.162.598.432 1.16.795 1.662a2.9 2.9 0 0 0 1.209.914 3.814 3.814 0 0 0 1.656.3c.464.017.928-.039 1.375-.167.343-.108.675-.247.993-.415.244-.127.482-.265.712-.416a.943.943 0 0 1 .414-.216h.166a.965.965 0 0 1 .133.216c.009.127.009.255 0 .382v.665l.033-.116zm12.603-11.385c.022.194.022.389 0 .582a.967.967 0 0 1-.083.382.865.865 0 0 1-.116.217c-.083 0-.132.083-.215.083h-3.693V99.01a.334.334 0 0 1 0 .216.63.63 0 0 1-.249.166 2.773 2.773 0 0 0-.463.083h-1.458l-.464-.083a.63.63 0 0 1-.248-.166.316.316 0 0 1-.083-.216v-11.9h-3.693a.314.314 0 0 1-.199-.084.865.865 0 0 1-.132-.216 1.017 1.017 0 0 1 0-.382 3.92 3.92 0 0 1 0-1.164.85.85 0 0 1 0-.382.449.449 0 0 1 .132-.216.33.33 0 0 1 .216 0h10.649a.45.45 0 0 1 .116.216.8.8 0 0 1 .082.382c.022.194.022.389 0 .582l-.099-.067zm10.815 9.175a4.485 4.485 0 0 1-.414 2.045 4.7 4.7 0 0 1-1.21 1.496 5.772 5.772 0 0 1-1.738.88 7.015 7.015 0 0 1-2.12.3 7.51 7.51 0 0 1-1.408-.133 6.754 6.754 0 0 1-2.037-.682 2.484 2.484 0 0 1-.464-.332.8.8 0 0 1-.215-.466 3.62 3.62 0 0 1 0-.797 2.469 2.469 0 0 1 0-.582v-.416a.432.432 0 0 1 .166-.216.314.314 0 0 1 .215 0c.166.017.325.074.464.167.227.173.478.313.745.415.343.177.704.317 1.076.416.473.142.964.215 1.458.216.336.001.67-.043.993-.133.272-.077.525-.207.746-.383.2-.172.358-.388.463-.631.12-.248.178-.522.166-.798a1.15 1.15 0 0 0-.298-.831 2.72 2.72 0 0 0-.712-.665c-.321-.2-.653-.383-.994-.548-.38-.133-.745-.333-1.16-.499-.399-.185-.786-.396-1.158-.632a4.84 4.84 0 0 1-.994-.83 3.642 3.642 0 0 1-.712-1.164 3.735 3.735 0 0 1-.298-1.662 3.901 3.901 0 0 1 .414-1.878 3.738 3.738 0 0 1 1.043-1.33 5.193 5.193 0 0 1 1.656-.831 7.345 7.345 0 0 1 1.954-.25 8.598 8.598 0 0 1 1.044 0c.337.043.67.115.993.217.278.077.545.189.795.332.174.066.34.15.497.25.069.053.116.13.133.215a.334.334 0 0 1 0 .216.767.767 0 0 1 0 .333V87.225a.948.948 0 0 1-.116.217.33.33 0 0 1-.215 0 2.033 2.033 0 0 1-.414-.167c-.166-.116-.381-.2-.663-.382-.281-.183-.58-.2-.91-.332a5.282 5.282 0 0 0-1.16-.167 2.757 2.757 0 0 0-.878.117c-.215.067-.413.18-.58.332-.159.155-.283.342-.364.549-.094.197-.14.413-.132.631-.013.297.075.59.248.831.208.264.46.488.745.665.314.2.647.367.994.499.414.166.795.382 1.16.548.419.177.823.388 1.208.632.368.23.702.51.994.831.308.34.55.734.712 1.163.214.487.316 1.015.298 1.546l-.016.216z" fill="#F1FAEE" fill-rule="nonzero"/><path d="M294.646 60.923v26.792c0 17.528-32.123 17.364-32.123 0V60.923h9.26v26.464a5.492 5.492 0 0 0 5.425 5.477h2.753a5.492 5.492 0 0 0 5.425-5.477V60.923h9.26zm31.98 9.962l2.802-6.749c-1.7-3.898-17.314-4.914-22.075.737a9.107 9.107 0 0 0-.891 10.237c3.498 7.158 8.665 7.404 13.734 11.188a4.307 4.307 0 0 1 2.106 4.324 2.789 2.789 0 0 1-2.073 2.26 14.663 14.663 0 0 1-12.115-2.965l-3.499 7.273s5.766 4.914 16.342 3.276c10.577-1.638 12.358-10.893 8.099-17.313-4.26-6.421-12.65-5.39-14.577-10.483-1.927-5.094 7.159-5.422 12.115-1.802l.032.017zm38.305 31.023l-2.812-7.565H349.65l-2.846 7.565h-10.067l17.09-39.877h4.425l17.255 39.877H364.93zm-5.444-14.369l-3.635-9.567-3.586 9.518 7.22.05z" fill="#F1FAEE"/><path d="M12.666 0H0v52.062h12.634V31.963h4.233l13.418 20h14.023l-15.15-22.046c4.856-2.885 7.849-8.14 7.877-13.828C36.999 7.255 29.915.102 21.165.066L12.666 0zm0 10.808h6.946c3.066.018 5.541 2.532 5.54 5.627.001 3.095-2.474 5.61-5.54 5.627h-6.93l-.016-11.254zm.017 11.056v-10.89 10.89zm66.203 3.677c0-8.922-5.237-16.131-11.665-16.131-6.427 0-11.631 7.21-11.631 16.131 0 8.923 5.204 16.083 11.631 16.083 6.428 0 11.665-7.21 11.665-16.083zm13.05-.212C91.551 11.66 80.22.852 66.544 1.112c-13.676.261-24.587 11.492-24.45 25.168.136 13.675 11.27 24.686 24.948 24.674 13.942-.224 25.076-11.684 24.894-25.625zm41.135 12.39l5.39 7.373a25.461 25.461 0 0 1-35.286-.271c-9.832-9.549-10.601-25.209-1.753-35.699 8.848-10.49 24.24-12.164 35.085-3.817l-4.283 8.247a14.55 14.55 0 0 0-9.608-3.678c-8.42.545-14.973 7.62-14.973 16.166 0 8.545 6.554 15.62 14.973 16.166a14.647 14.647 0 0 0 10.455-4.47v-.017z" fill="#D61819"/><path fill="#D61819" d="M143.387263 0L155.695159 0.114889902 155.46418 23.6344941 165.924242 13.1466874 182.769231 13.6883112 167.161631 29.3625764 181.399854 52.0615385 166.782165 51.9302357 158.268928 38.2911631 155.282696 41.229062 155.183705 51.89741 142.892308 51.7825201z"/><path fill="#209CD1" d="M188.307692 0L234.830769 0 234.830769 10.4156142 217.244167 10.4156142 217.244167 52.0615385 205.275507 52.0615385 205.275507 10.4156142 188.307692 10.4156142z"/><path d="M331.3 37.712l5.438 7.373a25.454 25.454 0 0 1-35.28-.257c-9.834-9.544-10.61-25.204-1.767-35.697 8.842-10.494 24.23-12.175 35.077-3.833l-4.282 8.248a14.546 14.546 0 0 0-9.607-3.679c-8.533.39-15.252 7.513-15.252 16.166s6.72 15.775 15.252 16.166a14.562 14.562 0 0 0 10.421-4.47v-.017zm-82.168-8.79h36.537c6.232-18.845-12.528-32.334-29.554-28.16-13.289 3.14-21.94 16.017-19.871 29.573 2.993 20.045 24.533 28.21 46.547 15.954l-5.414-8.084s-8.62 6.572-19.005 3.828c-10.385-2.743-9.159-12.29-9.24-13.144v.033zm.212-9.2h25.122c-1.636-9.859-18.187-15.757-25.122 0zm128.38 13.165v19.175h-13.71V28.828c0-5.545-6.363-6.502-9.135-2.442v25.676h-13.71V0h13.71v14.323s8.516-2.937 15.463.627c6.947 3.564 7.331 12.59 7.331 17.937h.05z" fill="#209CD1"/></g></svg>