<?xml version="1.0" encoding="UTF-8"?>
<svg width="81px" height="84px" viewBox="0 0 81 84" version="1.1" xmlns="http://www.w3.org/2000/svg" xmlns:xlink="http://www.w3.org/1999/xlink">
    <!-- Generator: Sketch 50.2 (55047) - http://www.bohemiancoding.com/sketch -->
    <title>Group</title>
    <desc>Created with Sketch.</desc>
    <defs>
        <path d="M0,0 L33,0 L33,33 L0,33 L0,0 Z M17.886116,21.5216745 L23.0503032,31.234098 L30.113884,27.4783255 L24.9496968,17.765902 L17.886116,21.5216745 Z" id="path-1"></path>
    </defs>
    <g id="Page-1" stroke="none" stroke-width="1" fill="none" fill-rule="evenodd">
        <g id="Group" transform="translate(-1.000000, -1.000000)">
            <g id="tap.png">
                <g id="one-finger" transform="translate(12.000000, 13.000000)" fill="#000000">
                    <path d="M68.3434432,40.3859639 C73.3428294,49.9920214 66.0879035,65.5368522 59.0469013,69.1506197 C52.0058991,72.7643873 47.844193,74.8746405 35.4571739,70.6992995 C23.0701548,66.5239585 6.22603186,59.0640673 2.18858942,57.3766267 C-1.84885302,55.689186 0.218918258,47.0794841 5.94698788,48.7310103 C11.6750575,50.3825365 19.0290511,55.6224449 21.1742163,53.2118153 C23.3193814,50.8011857 20.1374495,47.3635361 17.547555,41.7782761 C14.9576606,36.1930162 2.51396117,11.4527739 0.792270272,7.65399345 C-0.929420629,3.85521296 0.424387457,0.969530249 2.28560144,0.282800133 C4.14681543,-0.403929983 7.62616754,-0.0578441067 9.18217541,3.79807467 C10.7381833,7.65399344 20.5249518,26.3643964 21.6313253,28.0523806 C22.7376987,29.7403648 25.4622101,29.0634295 24.0816964,26.3643959 C22.7011827,23.6653623 21.2487281,20.8885124 20.2508115,18.5399171 C19.2528948,16.1913219 25.5194372,10.3328939 27.5299834,14.4364055 C29.5405297,18.5399171 32.3091877,23.6544784 33.883181,25.8534295 C35.4571743,28.0523805 37.3055135,26.3643963 36.1994996,24.4841605 C35.0934857,22.6039248 33.3474527,19.0749119 32.0663026,16.5034621 C30.7851526,13.9320124 36.903965,9.0092995 39.5436063,11.9841906 C42.1832475,14.9590817 45.1230018,21.5226991 46.2049187,23.3138446 C47.2868356,25.1049901 50.0906859,23.9925892 48.5626624,21.8114309 C47.0346389,19.6302727 44.9904593,15.8798345 48.5895632,13.9320126 C52.1886671,11.9841907 54.7406009,13.2395595 55.9979335,16.2835558 C57.2552661,19.327552 63.344057,30.7799064 68.3434432,40.3859639 Z" id="Path-9"></path>
                </g>
                <g id="circle-finger-bottom-right">
                    <mask id="mask-2" fill="white">
                        <use xlink:href="#path-1"></use>
                    </mask>
                    <g id="Rectangle-2"></g>
                    <g id="Oval-7" stroke-width="1" fill-rule="evenodd" mask="url(#mask-2)" fill="#000000">
                        <g transform="translate(1.000000, 1.000000)" id="Oval-5">
                            <path d="M15.5,31 C6.93958638,31 0,24.0604136 0,15.5 C0,6.93958638 6.93958638,0 15.5,0 C24.0604136,0 31,6.93958638 31,15.5 C31,24.0604136 24.0604136,31 15.5,31 Z M15.5,26 C21.2989899,26 26,21.2989899 26,15.5 C26,9.70101013 21.2989899,5 15.5,5 C9.70101013,5 5,9.70101013 5,15.5 C5,21.2989899 9.70101013,26 15.5,26 Z"></path>
                        </g>
                    </g>
                </g>
            </g>
        </g>
    </g>
</svg>