<svg width="122" height="50" viewBox="0 0 122 50" xmlns="http://www.w3.org/2000/svg"><title>logo</title><g><path d="M37.166 17.287c-5.867-.287-11.506.172-16.917 1.379a109.857 109.857 0 0 0-16.063 4.91c-1.367.517-2.406.46-3.118-.172C.356 22.772 0 22.141 0 21.51c.399-1.092 1.11-1.982 2.136-2.671 11.677-5.744 23.353-7.87 35.03-6.376.57.173 1.04.589 1.41 1.25.37.66.498 1.22.384 1.68-.114.574-.285 1.048-.513 1.421-.228.373-.655.531-1.281.474zM25.033 47.356c0 .631-.213 1.191-.64 1.68-.428.488-.954.79-1.581.904-1.14.173-1.88-.028-2.221-.603-.342-.574-.542-1.235-.598-1.981-.057-4.021-.129-8.027-.214-12.02-.086-3.991-.27-7.997-.555-12.018 0-.23-.029-.503-.086-.819a2.65 2.65 0 0 1 0-.947c.057-.316.185-.589.385-.819.199-.23.526-.402.982-.517 1.31-.23 2.25-.014 2.82.647.57.66.854 1.306.854 1.938.456 4.136.74 8.242.854 12.32.114 4.079.114 8.157 0 12.235z"/><path d="M84.84 14.474c-1.65 4.239-3.57 8.662-5.761 13.268-2.19 4.607-4.794 9.171-7.809 13.693-.853 1.3-1.82 1.95-2.902 1.95-.682 0-1.251-.155-1.706-.466a4.501 4.501 0 0 1-1.195-1.23 58.809 58.809 0 0 1-4.011-7.206c-1.195-2.544-2.361-5.426-3.5-8.648a125.657 125.657 0 0 1-5.504 8.733 69.347 69.347 0 0 1-6.614 8.224c-.455.509-.924.848-1.408 1.017-.483.17-.867.226-1.152.17-1.195-.17-2.133-.905-2.816-2.205-2.105-3.9-3.528-8.195-4.267-12.887A99.862 99.862 0 0 1 35 14.474c0-.453.17-.905.512-1.357.341-.452.853-.65 1.536-.593 1.024.056 1.82.438 2.39 1.144.569.707.91 1.569 1.024 2.586.114 1.413.256 3.01.427 4.79.17 1.781.398 3.604.682 5.47a53.882 53.882 0 0 0 1.11 5.425c.455 1.753 1.024 3.279 1.707 4.579.853-1.074 1.763-2.261 2.73-3.561a97.601 97.601 0 0 0 5.547-8.351 57.572 57.572 0 0 0 2.305-4.282c.455-.961 1.024-1.583 1.707-1.865.682-.283 1.223-.424 1.621-.424 1.707 0 2.873.82 3.5 2.458.966 2.374 1.948 4.89 2.943 7.546a76.468 76.468 0 0 0 3.286 7.546 84.088 84.088 0 0 0 3.158-5.341 177.459 177.459 0 0 0 6.102-12.294c.938-2.092 1.778-4.07 2.517-5.935.285-.678.768-1.244 1.451-1.696.683-.452 1.422-.424 2.219.085.626.396 1.067 1.032 1.323 1.908.256.876.27 1.596.042 2.162z"/><path d="M110.523 17.938a14.659 14.659 0 0 1-1.85 4.581 26.485 26.485 0 0 1-3.057 4.067 21.091 21.091 0 0 1-3.745 3.254c-1.35.913-2.712 1.627-4.09 2.14-2.526.914-5.037 1.213-7.533.9-2.497-.314-4.721-1.442-6.673-3.383a14.282 14.282 0 0 1-2.798-5.394 21.987 21.987 0 0 1-.775-6.122c.029-2.084.316-4.096.861-6.036.545-1.941 1.248-3.682 2.11-5.224 1.033-1.826 2.267-3.339 3.702-4.538C88.11.985 89.688.271 91.41.043c.459-.114.832 0 1.12.342.286.343.43.742.43 1.199.574-.57 1.463-.999 2.669-1.284 1.205-.286 2.554-.314 4.046-.086 2.755.343 4.936 1.17 6.543 2.483 1.607 1.313 2.798 2.84 3.573 4.581a13.852 13.852 0 0 1 1.206 5.48c.028 1.912-.13 3.639-.474 5.18zM91.754 6.122a7.45 7.45 0 0 0-2.884 2.27 13.392 13.392 0 0 0-1.894 3.381 15.333 15.333 0 0 0-.947 4.067 23.308 23.308 0 0 0-.043 4.239c.172 1.998.775 3.639 1.808 4.923 1.033 1.285 2.64 1.927 4.821 1.927a10.16 10.16 0 0 0 3.745-.728 13.752 13.752 0 0 0 3.401-1.927c1.033-.799 1.98-1.755 2.841-2.868a16.049 16.049 0 0 0 2.067-3.468c.287-.628.516-1.413.688-2.354.173-.942.23-1.913.173-2.912a8.24 8.24 0 0 0-.69-2.868c-.401-.913-1.032-1.684-1.893-2.312-1.206-.856-2.64-1.37-4.305-1.541-1.665-.171-3.415.2-5.252 1.113-.344.228-.732.271-1.162.128-.43-.142-.589-.5-.474-1.07z"/><path d="M120.81 17.873a496.354 496.354 0 0 0-3.993 14.735 682.654 682.654 0 0 1-3.654 13.79c-.226.917-.708 1.619-1.444 2.105-.736.487-1.388.616-1.954.387-.284-.115-.538-.372-.765-.773a5.893 5.893 0 0 1-.552-1.418 8.37 8.37 0 0 1-.255-1.718c-.029-.602-.014-1.16.042-1.676.963-3.608 2.082-7.775 3.357-12.5a443.102 443.102 0 0 1 4.12-14.306c-1.36.114-2.775.243-4.248.386-1.473.144-2.917.272-4.333.387-1.416.115-2.748.23-3.994.344-1.246.114-2.322.229-3.229.343-.962 0-1.855-.458-2.676-1.374-.821-.917-1.232-1.862-1.232-2.836 0-.286.142-.53.425-.73.283-.2.566-.33.85-.387 1.472-.229 3.143-.43 5.013-.601 1.869-.172 3.766-.33 5.692-.473 1.926-.143 3.81-.272 5.65-.386a79.692 79.692 0 0 1 4.886-.172c.34 0 .723.129 1.147.387a4.69 4.69 0 0 1 1.147.988c.34.4.624.83.85 1.288.227.459.34.86.34 1.203l-1.19 3.007z"/></g></svg>