<?xml version="1.0" encoding="UTF-8"?>
<svg width="32px" height="32px" viewBox="0 0 32 32" version="1.1" xmlns="http://www.w3.org/2000/svg" xmlns:xlink="http://www.w3.org/1999/xlink">
    <!-- Generator: Sketch 50.2 (55047) - http://www.bohemiancoding.com/sketch -->
    <title>Favicon</title>
    <desc>Created with Sketch.</desc>
    <defs></defs>
    <g id="Favicon" stroke="none" stroke-width="1" fill="none" fill-rule="evenodd">
        <circle id="Oval" fill="#D8D8D8" cx="16" cy="16" r="16"></circle>
        <path d="M5.77539062,22.4921875 C5.81445332,22.3098949 5.84700508,22.0755223 5.87304688,21.7890625 C5.89908867,21.5026027 5.93489561,21.1250023 5.98046875,20.65625 C6.02604189,20.1874977 6.07812471,19.6080764 6.13671875,18.9179688 C6.19531279,18.2278611 6.27669219,17.3880258 6.38085938,16.3984375 C6.48502656,15.4088492 6.60546807,14.2467515 6.7421875,12.9121094 C6.87890693,11.5774673 7.0579416,10.0247484 7.27929688,8.25390625 C7.29231777,8.12369727 7.35416611,8.04557305 7.46484375,8.01953125 C7.57552139,7.99348945 7.67643184,7.98046875 7.76757812,7.98046875 C7.91080801,7.98046875 8.02799434,8.03255156 8.11914062,8.13671875 C8.21028691,8.24088594 8.29166631,8.35807227 8.36328125,8.48828125 C8.43489619,8.61849023 8.50325488,8.75520762 8.56835938,8.8984375 C8.63346387,9.04166738 8.70507773,9.15885371 8.78320312,9.25 C8.91341211,9.54948066 9.04687432,9.8945293 9.18359375,10.2851562 C9.32031318,10.6757832 9.46679609,11.0924457 9.62304688,11.5351562 C9.77929766,11.9778668 9.93554609,12.4238259 10.0917969,12.8730469 C10.2480477,13.3222679 10.4042961,13.7584614 10.5605469,14.1816406 C10.7167977,14.6048198 10.8632806,14.9954409 11,15.3535156 C11.1367194,15.7115903 11.2636713,16.0078113 11.3808594,16.2421875 C11.5240893,16.2291666 11.7259102,16.1738286 11.9863281,16.0761719 C12.2467461,15.9785151 12.5266912,15.884115 12.8261719,15.7929688 C13.1256525,15.7018225 13.4186184,15.6302086 13.7050781,15.578125 C13.9915379,15.5260414 14.2324209,15.5227862 14.4277344,15.5683594 C14.6230479,15.6139325 14.7499997,15.7278637 14.8085938,15.9101562 C14.8671878,16.0924488 14.8183602,16.3789043 14.6621094,16.7695312 C14.5709631,16.7695312 14.4863285,16.7532554 14.4082031,16.7207031 L14.1738281,16.6230469 C14.0957027,16.5904946 14.0143233,16.5579429 13.9296875,16.5253906 C13.8450517,16.4928384 13.7506516,16.4765625 13.6464844,16.4765625 C13.5813799,16.4765625 13.434897,16.5123694 13.2070312,16.5839844 C12.9791655,16.6555993 12.7350273,16.7337235 12.4746094,16.8183594 C12.2141914,16.9029952 11.9863291,16.9876298 11.7910156,17.0722656 C11.5957021,17.1569015 11.4980469,17.2187498 11.4980469,17.2578125 L12.8457031,22.5507812 L12.3378906,23.2929688 C12.1165354,22.9153627 11.9309903,22.4824243 11.78125,21.9941406 C11.6315097,21.5058569 11.4915371,21.0175806 11.3613281,20.5292969 C11.2311191,20.0410132 11.0976569,19.5852886 10.9609375,19.1621094 C10.8242181,18.7389302 10.6516937,18.384116 10.4433594,18.0976562 C10.1699205,18.2278652 9.84440293,18.3385412 9.46679688,18.4296875 C9.08919082,18.5208338 8.72461113,18.6347649 8.37304688,18.7714844 C8.02148262,18.9082038 7.71875127,19.0904937 7.46484375,19.3183594 C7.21093623,19.5462251 7.05794297,19.8554668 7.00585938,20.2460938 C6.97981758,20.4023445 6.95703135,20.6106758 6.9375,20.8710938 C6.91796865,21.1315117 6.89518242,21.3789051 6.86914062,21.6132812 C6.83007793,21.899741 6.79752617,22.1927068 6.77148438,22.4921875 L5.77539062,22.4921875 Z M8.02148438,10.9882812 L7.98242188,11.3203125 C7.96940098,11.5416678 7.94986992,11.7988267 7.92382812,12.0917969 C7.89778633,12.3847671 7.86848975,12.6842433 7.8359375,12.9902344 C7.80338525,13.2962255 7.78059902,13.5533844 7.76757812,13.7617188 C7.70247363,14.4908891 7.63411494,15.2102829 7.5625,15.9199219 C7.49088506,16.6295608 7.45507812,17.355465 7.45507812,18.0976562 C7.7024752,18.0976562 7.96614443,18.0651045 8.24609375,18 C8.52604307,17.9348955 8.79622266,17.8470058 9.05664062,17.7363281 C9.31705859,17.6256505 9.55468643,17.4889331 9.76953125,17.3261719 C9.98437607,17.1634106 10.15039,16.9778656 10.2675781,16.7695312 C10.1634109,16.3137998 10.0494798,15.8417993 9.92578125,15.3535156 C9.80208271,14.8652319 9.66862051,14.3704452 9.52539062,13.8691406 C9.38216074,13.367836 9.2259123,12.8763045 9.05664062,12.3945312 C8.88736895,11.912758 8.7050791,11.4440127 8.50976562,10.9882812 C8.49674473,10.9752604 8.45117227,10.9459638 8.37304688,10.9003906 C8.29492148,10.8548175 8.17773516,10.8841141 8.02148438,10.9882812 Z M23.6660156,10.0117188 C23.613932,9.98567695 23.539063,10.1321599 23.4414062,10.4511719 C23.3437495,10.7701839 23.2167977,11.180336 23.0605469,11.6816406 C22.9042961,12.1829452 22.7382821,12.7493458 22.5625,13.3808594 C22.3867179,14.0123729 22.1946625,14.6406219 21.9863281,15.265625 C21.7779938,15.8906281 21.5696625,16.4733046 21.3613281,17.0136719 C21.1529938,17.5540392 20.9446625,17.9804672 20.7363281,18.2929688 C20.5279938,18.6054703 20.3326832,18.7779946 20.1503906,18.8105469 C19.968098,18.8430991 19.8053393,18.6575541 19.6621094,18.2539062 C19.5579422,18.0716137 19.4114593,17.781903 19.2226562,17.3847656 C19.0338532,16.9876282 18.8157564,16.5416691 18.5683594,16.046875 L17.7871094,14.484375 C17.5136705,13.9374973 17.2565116,13.4199243 17.015625,12.9316406 C16.7747384,12.4433569 16.5533864,12.0039082 16.3515625,11.6132812 C16.1497386,11.2226543 16.0032557,10.9361988 15.9121094,10.7539062 C15.7558586,10.4674465 15.615886,10.236329 15.4921875,10.0605469 C15.368489,9.88476475 15.1764336,9.796875 14.9160156,9.796875 C14.9160156,10.7083379 14.9680984,11.710932 15.0722656,12.8046875 C15.1764328,13.898443 15.290364,15.0052027 15.4140625,16.125 C15.537761,17.2447973 15.6516922,18.3483019 15.7558594,19.4355469 C15.8600266,20.5227919 15.9121094,21.5286412 15.9121094,22.453125 C15.964193,22.5703131 15.9479171,22.6809891 15.8632812,22.7851562 C15.7786454,22.8893234 15.6614591,22.9674477 15.5117188,23.0195312 C15.3619784,23.0716148 15.1992196,23.07487 15.0234375,23.0292969 C14.8476554,22.9837237 14.7011725,22.8763029 14.5839844,22.7070312 C14.4667963,21.5481713 14.4049479,20.3665425 14.3984375,19.1621094 C14.3919271,17.9576763 14.3821615,16.7500061 14.3691406,15.5390625 C14.3561197,14.3281189 14.3040369,13.1139384 14.2128906,11.8964844 C14.1217443,10.6790304 13.9394545,9.4648498 13.6660156,8.25390625 C13.6529947,8.01953008 13.6920568,7.87304717 13.7832031,7.81445312 C13.8743494,7.75585908 13.9915357,7.7265625 14.1347656,7.7265625 C14.4472672,7.7265625 14.7304675,7.80143154 14.984375,7.95117188 C15.2382825,8.10091221 15.4694,8.2897124 15.6777344,8.51757812 C15.8860687,8.74544385 16.0716138,8.99609238 16.234375,9.26953125 C16.3971362,9.54297012 16.5436191,9.79036348 16.6738281,10.0117188 C16.7779953,10.1809904 16.921223,10.4479148 17.1035156,10.8125 L17.7285156,12.0820312 C17.9628918,12.5507836 18.20703,13.0423151 18.4609375,13.5566406 C18.714845,14.0709661 18.9589832,14.5592425 19.1933594,15.0214844 C19.4277355,15.4837263 19.6425771,15.8938784 19.8378906,16.2519531 C20.0332041,16.6100278 20.1829422,16.8671867 20.2871094,17.0234375 C20.339193,17.0234375 20.3847654,17.0039064 20.4238281,16.9648438 C20.4628908,16.9257811 20.5182288,16.8151051 20.5898438,16.6328125 C20.6614587,16.4505199 20.759114,16.1705748 20.8828125,15.7929688 C21.006511,15.4153627 21.1790354,14.8945346 21.4003906,14.2304688 C21.6217459,13.5664029 21.8951807,12.7265676 22.2207031,11.7109375 C22.5462256,10.6953074 22.943357,9.45834063 23.4121094,8 C23.4381512,7.93489551 23.5227857,7.87630234 23.6660156,7.82421875 C23.8092455,7.77213516 23.9394525,7.74609375 24.0566406,7.74609375 C24.1738287,7.74609375 24.2552081,7.78515586 24.3007812,7.86328125 C24.3463544,7.94140664 24.3821613,8.07161367 24.4082031,8.25390625 C24.5253912,9.36068262 24.6197913,10.51627 24.6914062,11.7207031 C24.7630212,12.9251362 24.8574213,14.142572 24.9746094,15.3730469 C25.0917975,16.6035218 25.2382804,17.8242127 25.4140625,19.0351562 C25.5898446,20.2460998 25.8339828,21.398432 26.1464844,22.4921875 L24.7988281,23.0195312 L23.6660156,10.0117188 Z" id="AM" fill="#2A2A2A"></path>
    </g>
</svg>